<?xml version="1.0" encoding="UTF-8" standalone="no"?>
<!-- Created with Inkscape (http://www.inkscape.org/) -->

<svg
   width="262.68643mm"
   height="253.86919mm"
   viewBox="0 0 262.68643 253.86919"
   version="1.1"
   id="svg1"
   xml:space="preserve"
   inkscape:version="1.3 (0e150ed6c4, 2023-07-21)"
   sodipodi:docname="raniz-silhouette.svg"
   xmlns:inkscape="http://www.inkscape.org/namespaces/inkscape"
   xmlns:sodipodi="http://sodipodi.sourceforge.net/DTD/sodipodi-0.dtd"
   xmlns="http://www.w3.org/2000/svg"
   xmlns:svg="http://www.w3.org/2000/svg"><sodipodi:namedview
     id="namedview1"
     pagecolor="#ffffff"
     bordercolor="#666666"
     borderopacity="1.0"
     inkscape:showpageshadow="2"
     inkscape:pageopacity="0.0"
     inkscape:pagecheckerboard="0"
     inkscape:deskcolor="#d1d1d1"
     inkscape:document-units="mm"
     inkscape:zoom="0.55735122"
     inkscape:cx="952.72062"
     inkscape:cy="593.88046"
     inkscape:window-width="1920"
     inkscape:window-height="1020"
     inkscape:window-x="0"
     inkscape:window-y="32"
     inkscape:window-maximized="1"
     inkscape:current-layer="layer1" /><defs
     id="defs1" /><g
     inkscape:label="Layer 1"
     inkscape:groupmode="layer"
     id="layer1"
     transform="translate(44.758254,-17.131331)"><path
       id="path1"
       style="fill:#000000;fill-opacity:1;stroke:#000000;stroke-width:0.264583px;stroke-linecap:butt;stroke-linejoin:miter;stroke-opacity:1"
       d="m 105.74497,17.32039 c -4.19231,-0.280885 -9.360284,0.499823 -14.873514,1.949752 -7.350974,1.933238 -19.518129,6.414965 -24.229529,11.554333 -4.7114,5.139368 -2.0074,9.259181 -5.253943,14.037903 -3.246543,4.778722 -11.945127,8.309494 -14.58929,13.199711 -2.644164,4.890217 -1.976278,4.471157 -2.125452,13.515454 -0.149174,9.044297 6.586167,42.972997 4.980058,40.284877 -1.606109,-2.68811 -4.713873,-6.10485 -6.996989,-6.48177 -2.283116,-0.37692 -1.148636,-1.35509 -3.234945,0.37517 -2.086309,1.73026 -3.974431,8.29473 -3.86333,12.4194 0.111101,4.12466 2.464451,5.97585 4.089673,11.01638 1.625223,5.04052 2.982064,14.7528 6.075598,17.92707 3.093534,3.17427 4.338565,2.92284 6.465755,2.35489 2.127191,-0.56795 7.873883,30.13673 6.244581,38.64002 -1.629303,8.50329 -0.924809,4.86446 -7.28276,11.43755 -6.357951,6.57308 -26.983732,15.80461 -34.007227,24.23573 C 10.120161,232.21798 6.4273878,235.50485 0,237.78135 c -13.154139,4.33146 -25.242829,11.82505 -32.955611,17.65474 -1.382827,1.0452 -6.626948,8.2386 -11.55175,15.43213 H 217.76655 c -0.0615,-0.30498 -0.095,-0.49543 -0.15916,-0.81597 -2.31677,-11.56786 -7.60763,-30.73784 -18.40094,-36.81997 -10.79331,-6.08214 -41.10481,-16.80008 -45.90986,-20.82871 -4.80506,-4.02862 0.94477,-1.75549 1.36684,-11.68404 0.42207,-9.92855 -2.45468,-33.39547 -1.50585,-47.83739 0.94883,-14.44191 6.35799,-33.34666 6.31279,-38.46277 -0.0452,-5.1161 -0.4477,-13.65967 -3.7238,-14.15417 -3.27611,-0.494503 -4.21819,14.56882 -5.34593,4.12068 -1.12774,-10.448147 4.27648,-23.860879 2.73937,-34.107999 -1.53712,-10.24712 -5.60749,-11.40183 -8.49871,-14.616679 -2.89122,-3.214849 -6.53927,-4.369967 -7.475,-8.594307 -0.93572,-4.224341 -0.71906,-5.495091 -2.87372,-8.896615 -2.15466,-3.401524 -10.39209,-6.530547 -13.54543,-6.697266 -3.15334,-0.166719 -1.16296,-4.944191 -3.0086,-7.341154 -1.84564,-2.396962 -3.52029,-4.785401 -8.14989,-6.161897 -1.1574,-0.344125 -2.44626,-0.555945 -3.84369,-0.649573 z" /></g></svg>
